<svg width="40" height="60" viewBox="0 0 40 60" fill="none" xmlns="http://www.w3.org/2000/svg">
<g clip-path="url(#clip0)">
<path d="M3.375 33H1.875V21.625H3.375V33ZM7.26562 24.5469L7.3125 25.6094C7.95833 24.7969 8.80208 24.3906 9.84375 24.3906C11.6302 24.3906 12.5312 25.3984 12.5469 27.4141V33H11.1016V27.4062C11.0964 26.7969 10.9557 26.3464 10.6797 26.0547C10.4089 25.763 9.98438 25.6172 9.40625 25.6172C8.9375 25.6172 8.52604 25.7422 8.17188 25.9922C7.81771 26.2422 7.54167 26.5703 7.34375 26.9766V33H5.89844V24.5469H7.26562ZM16.2188 24.5469V33.9766C16.2188 35.6016 15.4818 36.4141 14.0078 36.4141C13.6901 36.4141 13.3958 36.3672 13.125 36.2734V35.1172C13.2917 35.1589 13.5104 35.1797 13.7812 35.1797C14.1042 35.1797 14.349 35.0911 14.5156 34.9141C14.6875 34.7422 14.7734 34.4401 14.7734 34.0078V24.5469H16.2188ZM14.625 22.3047C14.625 22.0755 14.6953 21.8802 14.8359 21.7188C14.9818 21.5521 15.1927 21.4688 15.4688 21.4688C15.75 21.4688 15.9635 21.5495 16.1094 21.7109C16.2552 21.8724 16.3281 22.0703 16.3281 22.3047C16.3281 22.5391 16.2552 22.7344 16.1094 22.8906C15.9635 23.0469 15.75 23.125 15.4688 23.125C15.1875 23.125 14.9766 23.0469 14.8359 22.8906C14.6953 22.7344 14.625 22.5391 14.625 22.3047ZM22.0625 33.1562C20.9167 33.1562 19.9844 32.7812 19.2656 32.0312C18.5469 31.276 18.1875 30.2682 18.1875 29.0078V28.7422C18.1875 27.9036 18.3464 27.1562 18.6641 26.5C18.987 25.8385 19.4349 25.3229 20.0078 24.9531C20.5859 24.5781 21.2109 24.3906 21.8828 24.3906C22.9818 24.3906 23.8359 24.7526 24.4453 25.4766C25.0547 26.2005 25.3594 27.237 25.3594 28.5859V29.1875H19.6328C19.6536 30.0208 19.8958 30.6953 20.3594 31.2109C20.8281 31.7214 21.4219 31.9766 22.1406 31.9766C22.651 31.9766 23.0833 31.8724 23.4375 31.6641C23.7917 31.4557 24.1016 31.1797 24.3672 30.8359L25.25 31.5234C24.5417 32.612 23.4792 33.1562 22.0625 33.1562ZM21.8828 25.5781C21.2995 25.5781 20.8099 25.7917 20.4141 26.2188C20.0182 26.6406 19.7734 27.2344 19.6797 28H23.9141V27.8906C23.8724 27.1562 23.6745 26.5885 23.3203 26.1875C22.9661 25.7812 22.487 25.5781 21.8828 25.5781ZM30.4297 31.9766C30.9453 31.9766 31.3958 31.8203 31.7812 31.5078C32.1667 31.1953 32.3802 30.8047 32.4219 30.3359H33.7891C33.763 30.8203 33.5964 31.2812 33.2891 31.7188C32.9818 32.1562 32.5703 32.5052 32.0547 32.7656C31.5443 33.026 31.0026 33.1562 30.4297 33.1562C29.2786 33.1562 28.362 32.7734 27.6797 32.0078C27.0026 31.237 26.6641 30.1849 26.6641 28.8516V28.6094C26.6641 27.7865 26.8151 27.0547 27.1172 26.4141C27.4193 25.7734 27.8516 25.276 28.4141 24.9219C28.9818 24.5677 29.651 24.3906 30.4219 24.3906C31.3698 24.3906 32.1562 24.6745 32.7812 25.2422C33.4115 25.8099 33.7474 26.5469 33.7891 27.4531H32.4219C32.3802 26.9062 32.1719 26.4583 31.7969 26.1094C31.4271 25.7552 30.9688 25.5781 30.4219 25.5781C29.6875 25.5781 29.1172 25.8438 28.7109 26.375C28.3099 26.901 28.1094 27.6641 28.1094 28.6641V28.9375C28.1094 29.9115 28.3099 30.6615 28.7109 31.1875C29.112 31.7135 29.6849 31.9766 30.4297 31.9766ZM37.375 22.5V24.5469H38.9531V25.6641H37.375V30.9062C37.375 31.2448 37.4453 31.5 37.5859 31.6719C37.7266 31.8385 37.9661 31.9219 38.3047 31.9219C38.4714 31.9219 38.7005 31.8906 38.9922 31.8281V33C38.612 33.1042 38.2422 33.1562 37.8828 33.1562C37.237 33.1562 36.75 32.9609 36.4219 32.5703C36.0938 32.1797 35.9297 31.625 35.9297 30.9062V25.6641H34.3906V24.5469H35.9297V22.5H37.375Z" fill="black"/>
</g>
<defs>
<clipPath id="clip0">
<rect width="40" height="60" fill="white"/>
</clipPath>
</defs>
</svg>
