<svg width="38" height="14" viewBox="0 0 38 14" fill="none" xmlns="http://www.w3.org/2000/svg">
<path d="M4.8584 7.2959C3.41113 6.87988 2.35645 6.37012 1.69434 5.7666C1.03809 5.15723 0.709961 4.40723 0.709961 3.5166C0.709961 2.50879 1.11133 1.67676 1.91406 1.02051C2.72266 0.358398 3.77148 0.0273438 5.06055 0.0273438C5.93945 0.0273438 6.72168 0.197266 7.40723 0.537109C8.09863 0.876953 8.63184 1.3457 9.00684 1.94336C9.3877 2.54102 9.57812 3.19434 9.57812 3.90332H7.88184C7.88184 3.12988 7.63574 2.52344 7.14355 2.08398C6.65137 1.63867 5.95703 1.41602 5.06055 1.41602C4.22852 1.41602 3.57812 1.60059 3.10938 1.96973C2.64648 2.33301 2.41504 2.83984 2.41504 3.49023C2.41504 4.01172 2.63477 4.4541 3.07422 4.81738C3.51953 5.1748 4.27246 5.50293 5.33301 5.80176C6.39941 6.10059 7.23145 6.43164 7.8291 6.79492C8.43262 7.15234 8.87793 7.57129 9.16504 8.05176C9.45801 8.53223 9.60449 9.09766 9.60449 9.74805C9.60449 10.7852 9.2002 11.6172 8.3916 12.2441C7.58301 12.8652 6.50195 13.1758 5.14844 13.1758C4.26953 13.1758 3.44922 13.0088 2.6875 12.6748C1.92578 12.335 1.33691 11.8721 0.920898 11.2861C0.510742 10.7002 0.305664 10.0352 0.305664 9.29102H2.00195C2.00195 10.0645 2.28613 10.6768 2.85449 11.1279C3.42871 11.5732 4.19336 11.7959 5.14844 11.7959C6.03906 11.7959 6.72168 11.6143 7.19629 11.251C7.6709 10.8877 7.9082 10.3926 7.9082 9.76562C7.9082 9.13867 7.68848 8.65527 7.24902 8.31543C6.80957 7.96973 6.0127 7.62988 4.8584 7.2959ZM13.7266 1.1875V3.49023H15.502V4.74707H13.7266V10.6445C13.7266 11.0254 13.8057 11.3125 13.9639 11.5059C14.1221 11.6934 14.3916 11.7871 14.7725 11.7871C14.96 11.7871 15.2178 11.752 15.5459 11.6816V13C15.1182 13.1172 14.7021 13.1758 14.2979 13.1758C13.5713 13.1758 13.0234 12.9561 12.6543 12.5166C12.2852 12.0771 12.1006 11.4531 12.1006 10.6445V4.74707H10.3691V3.49023H12.1006V1.1875H13.7266ZM23.2803 13C23.1865 12.8125 23.1104 12.4785 23.0518 11.998C22.2959 12.7832 21.3936 13.1758 20.3447 13.1758C19.4072 13.1758 18.6367 12.9121 18.0332 12.3848C17.4355 11.8516 17.1367 11.1777 17.1367 10.3633C17.1367 9.37305 17.5117 8.60547 18.2617 8.06055C19.0176 7.50977 20.0781 7.23438 21.4434 7.23438H23.0254V6.4873C23.0254 5.91895 22.8555 5.46777 22.5156 5.13379C22.1758 4.79395 21.6748 4.62402 21.0127 4.62402C20.4326 4.62402 19.9463 4.77051 19.5537 5.06348C19.1611 5.35645 18.9648 5.71094 18.9648 6.12695H17.3301C17.3301 5.65234 17.4971 5.19531 17.8311 4.75586C18.1709 4.31055 18.6279 3.95898 19.2021 3.70117C19.7822 3.44336 20.418 3.31445 21.1094 3.31445C22.2051 3.31445 23.0635 3.58984 23.6846 4.14062C24.3057 4.68555 24.6279 5.43848 24.6514 6.39941V10.7764C24.6514 11.6494 24.7627 12.3438 24.9854 12.8594V13H23.2803ZM20.582 11.7607C21.0918 11.7607 21.5752 11.6289 22.0322 11.3652C22.4893 11.1016 22.8203 10.7588 23.0254 10.3369V8.38574H21.751C19.7588 8.38574 18.7627 8.96875 18.7627 10.1348C18.7627 10.6445 18.9326 11.043 19.2725 11.3301C19.6123 11.6172 20.0488 11.7607 20.582 11.7607ZM31.7969 4.94922C31.5508 4.9082 31.2842 4.8877 30.9971 4.8877C29.9307 4.8877 29.207 5.3418 28.8262 6.25V13H27.2002V3.49023H28.7822L28.8086 4.58887C29.3418 3.73926 30.0977 3.31445 31.0762 3.31445C31.3926 3.31445 31.6328 3.35547 31.7969 3.4375V4.94922ZM35.9453 1.1875V3.49023H37.7207V4.74707H35.9453V10.6445C35.9453 11.0254 36.0244 11.3125 36.1826 11.5059C36.3408 11.6934 36.6104 11.7871 36.9912 11.7871C37.1787 11.7871 37.4365 11.752 37.7646 11.6816V13C37.3369 13.1172 36.9209 13.1758 36.5166 13.1758C35.79 13.1758 35.2422 12.9561 34.873 12.5166C34.5039 12.0771 34.3193 11.4531 34.3193 10.6445V4.74707H32.5879V3.49023H34.3193V1.1875H35.9453Z" fill="black"/>
</svg>
